<svg xmlns="http://www.w3.org/2000/svg" xmlns:xlink="http://www.w3.org/1999/xlink" width="94.106" height="110.254" viewBox="0 0 94.106 110.254">
  <defs>
    <clipPath id="clip-path">
      <rect id="Rectangle_142" data-name="Rectangle 142" width="94.106" height="110.254" fill="none"/>
    </clipPath>
  </defs>
  <g id="Group_89" data-name="Group 89" transform="translate(0 0)">
    <g id="Group_88" data-name="Group 88" transform="translate(0 0)" clip-path="url(#clip-path)">
      <path id="Path_1757" data-name="Path 1757" d="M2.2,28.151A60.032,60.032,0,0,1,43.8,11.884,60.041,60.041,0,0,1,85.4,28.151c.175.162.343.323.514.485V0H1.434V28.878c.252-.242.507-.485.769-.727" transform="translate(3.201 -0.001)" fill="#4961a9"/>
      <path id="Path_1758" data-name="Path 1758" d="M85.952,18.633c-.171.162-.339.323-.514.485a60.032,60.032,0,0,1-41.6,16.267,60.035,60.035,0,0,1-41.6-16.267q-.388-.364-.766-.727v1.483s-1.978,19.3,16.713,31.6L43.713,66.519,69.239,51.477c18.688-12.3,16.713-31.6,16.713-31.6Z" transform="translate(3.161 41.048)" fill="#4961a9"/>
      <path id="Path_1759" data-name="Path 1759" d="M25.515,41.772a5.419,5.419,0,0,1-2.156-.433,5.542,5.542,0,0,1-1.768-1.193A5.6,5.6,0,0,1,20.4,38.382a5.66,5.66,0,0,1,0-4.311,5.6,5.6,0,0,1,2.961-2.957,5.62,5.62,0,0,1,4.312,0,5.548,5.548,0,0,1,1.761,1.193,5.54,5.54,0,0,1-3.917,9.467m0-1.034a4.35,4.35,0,0,0,2.269-.611,4.635,4.635,0,0,0,1.629-1.632,4.5,4.5,0,0,0,0-4.538,4.626,4.626,0,0,0-1.629-1.629,4.5,4.5,0,0,0-4.538,0,4.644,4.644,0,0,0-1.635,1.629,4.54,4.54,0,0,0,0,4.538,4.653,4.653,0,0,0,1.635,1.632,4.333,4.333,0,0,0,2.269.611m-1.881-2.017V33.608H26.09a1.637,1.637,0,0,1,.75.184,1.513,1.513,0,0,1,.6.54,1.542,1.542,0,0,1,.239.876,1.583,1.583,0,0,1-.249.9,1.686,1.686,0,0,1-.621.579,1.666,1.666,0,0,1-.782.2h-1.9v-.7H25.8a.915.915,0,0,0,.637-.252.935.935,0,0,0,.281-.724.812.812,0,0,0-.281-.692,1,1,0,0,0-.614-.207h-1.29v4.412Zm2.983-2.376,1.27,2.376h-.992l-1.244-2.376Z" transform="translate(44.578 68.484)" fill="#272525"/>
      <path id="Path_1760" data-name="Path 1760" d="M94.048,32.278l-.123-.242A50.192,50.192,0,0,0,82.972,18.613,53.22,53.22,0,0,0,47.052,5.239,53.2,53.2,0,0,0,11.134,18.613,50.246,50.246,0,0,0,.178,32.036l-.12.242a.527.527,0,0,0,0,.482L.178,33A50.191,50.191,0,0,0,11.134,46.421,53.2,53.2,0,0,0,47.052,59.8,53.22,53.22,0,0,0,82.972,46.421,50.137,50.137,0,0,0,93.925,33l.123-.239a.527.527,0,0,0,0-.482M70.681,11.648a32.187,32.187,0,0,1,8.077,20.064c.158,2.951-.446,5.11-3.481,6.319-2.191.873-4.166,2.269-6.3,3.3-2.566,1.238-5.2,2.337-7.8,3.5-.123-.145-.246-.288-.368-.43,1.306-2.279,2.589-4.567,3.924-6.829a9.449,9.449,0,0,0-.023-10.3c-1.361-2.291-2.544-4.706-4.066-6.881a17.022,17.022,0,0,0-4.059-4.282c-5.85-4.043-12.634-5.743-19.466-7.272-.973-.22-1.978-.808-2.915-1.05A55.338,55.338,0,0,1,47.052,6.309a53.065,53.065,0,0,1,23.629,5.339M52.9,32.391a5.744,5.744,0,0,1-5.436,5.637,5.61,5.61,0,0,1-5.727-5.514,5.519,5.519,0,0,1,5.385-5.6A5.633,5.633,0,0,1,52.9,32.391M17.029,40.617A29.541,29.541,0,0,1,21.68,14.537a26.6,26.6,0,0,1,4.2-4.011c.249-.107.5-.21.753-.31,6.761.4,13.225,2.136,19.647,4.072l-.058.656c-1.2,0-2.4-.013-3.6,0-3.723.042-6.286,1.858-8.452,4.845C26.8,29.948,25.927,41.328,27.3,53.225a3.762,3.762,0,0,1-.517,1.661c-.449-.181-.9-.365-1.328-.556-4.719-3.319-6.946-8.374-8.429-13.713M30.585,56.25C30.287,50.41,30,44.7,29.705,39c.275-.055.546-.11.818-.162,1.222,2.062,2.453,4.121,3.665,6.189,1.458,2.5,3.526,4.505,6.416,4.654a73.93,73.93,0,0,0,14.182-.207C62.3,48.4,68.965,44.8,75.555,41.185c.588-.323,1.206-.6,2.153-1.067A31.633,31.633,0,0,1,70.455,53.5a53.12,53.12,0,0,1-23.4,5.229A54.4,54.4,0,0,1,30.585,56.25" transform="translate(0 11.693)" fill="#272525"/>
    </g>
  </g>
</svg>
